<svg xmlns="http://www.w3.org/2000/svg" viewBox="0 0 256 256" fill="none">
  <rect width="256" height="256" fill="black"/>

  <defs>
    <mask id="og-star-cutout">
      <rect width="256" height="160" fill="white" />
      <polygon
        fill="black"
        points="
          64,40
          72,60
          88,56
          84,72
          104,80
          84,88
          88,104
          72,100
          64,120
          56,100
          40,104
          44,88
          24,80
          44,72
          40,56
          56,60
        "
      />
    </mask>
  </defs>

  <g transform="translate(20 48) scale(0.85)" fill="white" mask="url(#og-star-cutout)">
    <rect x="0" y="16" width="128" height="128" />
    <rect x="96" y="16" width="32" height="128" />
    <rect x="96" y="16" width="160" height="32" />
    <rect x="96" y="112" width="160" height="32" />
    <rect x="224" y="16" width="32" height="48" />
    <rect x="224" y="96" width="32" height="48" />
    <rect x="160" y="64" width="64" height="32" />
  </g>
</svg>
